<?xml version="1.0" encoding="utf-8"?>
<!-- Generator: Adobe Illustrator 23.0.1, SVG Export Plug-In . SVG Version: 6.00 Build 0)  -->
<svg version="1.1" id="Capa_1" xmlns="http://www.w3.org/2000/svg" xmlns:xlink="http://www.w3.org/1999/xlink" x="0px" y="0px"
	 viewBox="0 0 298 65" style="enable-background:new 0 0 298 65;" xml:space="preserve">
<style type="text/css">
	.st0{fill:#00589D;}
	.st1{fill-rule:evenodd;clip-rule:evenodd;fill:#009DDF;}
	.st2{opacity:0.8;fill-rule:evenodd;clip-rule:evenodd;fill:#009DDF;}
	.st3{fill-rule:evenodd;clip-rule:evenodd;fill:#00589D;}
	.st4{fill-rule:evenodd;clip-rule:evenodd;fill:#80ACCE;}
	.st5{fill-rule:evenodd;clip-rule:evenodd;fill:#CE0E2D;}
</style>
<g>
	<path class="st0" d="M173.19,24.04c-2.18-0.61-3.53,1.02-3.96,2.53c-1.51,5.33-3.7,12.38-6.55,17.26
		c-0.61,1.06-2.05,4.27-5.04,4.27c-2.99,0-4.43-3.21-5.04-4.27c-2.84-4.87-5.03-11.93-6.54-17.26c-0.43-1.51-1.78-3.14-3.96-2.53
		c-2.47,0.69-1.99,3.32-1.68,4.44c1.4,4.94,3.19,10.7,5.44,15.37c2.25,4.66,5.16,10.04,11.79,10.04c6.62,0,9.53-5.37,11.77-10.04
		c2.26-4.67,4.05-10.43,5.45-15.37C175.18,27.36,175.65,24.74,173.19,24.04z"/>
	<path class="st1" d="M80.32,21.04c0.99,1.22,2.13,2.12,3.46,2.67c-0.77,2.36-1.64,4.67-1.58,7.44c2.38-1.56,3.07-3.96,4.65-5.92
		c1.61,1.14,2.84,3.03,4.61,3.81c0.42-1.44-1.54-3.86-2.47-5.05c1.11-1.11,3.44-1.61,4.44-2.78c-0.97-1.13-3.13,0.13-4.91,0.63
		c-0.66-0.4,0.67-1.45-0.09-2.53c-1.57,0.5-1.98,1.57-2.75,2.46C83.95,21.69,81.75,20.48,80.32,21.04z"/>
	<path class="st2" d="M80.32,21.04c0.99,1.22,2.13,2.12,3.46,2.67c-0.77,2.36-1.64,4.67-1.58,7.44c2.38-1.56,3.07-3.96,4.65-5.92
		c1.61,1.14,2.84,3.03,4.61,3.81c0.42-1.44-1.54-3.86-2.47-5.05c1.11-1.11,3.44-1.61,4.44-2.78c-0.97-1.13-3.13,0.13-4.91,0.63
		c-0.66-0.4,0.67-1.45-0.09-2.53c-1.57,0.5-1.98,1.57-2.75,2.46C83.95,21.69,81.75,20.48,80.32,21.04z"/>
	<path class="st0" d="M54.75,24.06c-8.17,0-14.8,6.62-14.8,14.79c0,8.17,6.62,14.79,14.8,14.79c8.17,0,14.8-6.62,14.8-14.79
		C69.55,30.68,62.92,24.06,54.75,24.06z M54.75,47.44c-4.74,0-8.58-3.84-8.58-8.58c0-4.74,3.84-8.58,8.58-8.58
		c4.74,0,8.58,3.84,8.58,8.58C63.33,43.59,59.49,47.44,54.75,47.44z"/>
	<path class="st0" d="M55.01,63.4c-0.02,0-0.05,0-0.07,0c-11.4-0.03-19.35-5.35-24.29-16.26c-1.1-2.43-1.9-4.99-2.68-7.46
		c-2.47-7.89-3.95-11.06-8.68-10.78c-6.64,0.41-10.38,18.4-11.15,27.04c-0.15,1.64-1.58,2.85-3.23,2.7
		c-1.64-0.15-2.85-1.59-2.7-3.23c0.03-0.31,0.7-7.62,2.82-15.15c3.12-11.1,7.8-16.93,13.9-17.3c9.85-0.62,12.56,8.01,14.73,14.94
		c0.72,2.3,1.47,4.68,2.42,6.78C40,53.36,46,57.42,54.95,57.44c0.02,0,0.04,0,0.05,0c7.49,0,12.16-4.66,12.21-4.7
		c1.15-1.17,3.04-1.19,4.21-0.03c1.17,1.16,1.18,3.04,0.03,4.21C71.19,57.19,64.96,63.4,55.01,63.4L55.01,63.4z"/>
	<path class="st0" d="M122.17,14.21c-0.02,0-0.05,0.01-0.07,0.01c-11.34,1.23-18.68,7.36-22.45,18.73c-0.84,2.54-1.37,5.16-1.88,7.7
		c-1.63,8.1-2.77,11.41-7.5,11.63c-6.64,0.29-12.25-17.2-13.93-25.72c-0.31-1.61-1.87-2.66-3.5-2.35c-1.61,0.32-2.66,1.88-2.35,3.5
		c0.06,0.3,1.5,7.51,4.4,14.77c4.27,10.72,9.53,16.01,15.64,15.75c9.86-0.42,11.65-9.29,13.08-16.4c0.48-2.37,0.97-4.81,1.69-7
		c2.99-9.05,8.53-13.71,17.44-14.68c0.02,0,0.04,0,0.05-0.01c7.44-0.78,12.58,3.35,12.63,3.4c1.27,1.04,3.15,0.86,4.19-0.41
		c1.04-1.27,0.86-3.15-0.41-4.19C138.92,18.69,132.07,13.17,122.17,14.21L122.17,14.21z"/>
	<path class="st1" d="M80.32,21.04c0.99,1.22,2.13,2.12,3.46,2.67c-0.77,2.36-1.64,4.67-1.58,7.44c2.38-1.56,3.07-3.96,4.65-5.92
		c1.61,1.14,2.84,3.03,4.61,3.81c0.42-1.44-1.54-3.86-2.47-5.05c1.11-1.11,3.44-1.61,4.44-2.78c-0.97-1.13-3.13,0.13-4.91,0.63
		c-0.66-0.4,0.67-1.45-0.09-2.53c-1.57,0.5-1.98,1.57-2.75,2.46C83.95,21.69,81.75,20.48,80.32,21.04z"/>
	<path class="st0" d="M54.75,24.06c-8.17,0-14.8,6.62-14.8,14.79c0,8.17,6.62,14.79,14.8,14.79c8.17,0,14.8-6.62,14.8-14.79
		C69.55,30.68,62.92,24.06,54.75,24.06z M54.75,47.44c-4.74,0-8.58-3.84-8.58-8.58c0-4.74,3.84-8.58,8.58-8.58
		c4.74,0,8.58,3.84,8.58,8.58C63.33,43.59,59.49,47.44,54.75,47.44z"/>
	<path class="st0" d="M55.01,63.4c-0.02,0-0.05,0-0.07,0c-11.4-0.03-19.35-5.35-24.29-16.26c-1.1-2.43-1.9-4.99-2.68-7.46
		c-2.47-7.89-3.95-11.06-8.68-10.78c-6.64,0.41-10.38,18.4-11.15,27.04c-0.15,1.64-1.58,2.85-3.23,2.7
		c-1.64-0.15-2.85-1.59-2.7-3.23c0.03-0.31,0.7-7.62,2.82-15.15c3.12-11.1,7.8-16.93,13.9-17.3c9.85-0.62,12.56,8.01,14.73,14.94
		c0.72,2.3,1.47,4.68,2.42,6.78C40,53.36,46,57.42,54.95,57.44c0.02,0,0.04,0,0.05,0c7.49,0,12.16-4.66,12.21-4.7
		c1.15-1.17,3.04-1.19,4.21-0.03c1.17,1.16,1.18,3.04,0.03,4.21C71.19,57.19,64.96,63.4,55.01,63.4L55.01,63.4z"/>
	<path class="st0" d="M122.17,14.21c-0.02,0-0.05,0.01-0.07,0.01c-11.34,1.23-18.68,7.36-22.45,18.73c-0.84,2.54-1.37,5.16-1.88,7.7
		c-1.63,8.1-2.77,11.41-7.5,11.63c-6.64,0.29-12.25-17.2-13.93-25.72c-0.31-1.61-1.87-2.66-3.5-2.35c-1.61,0.32-2.66,1.88-2.35,3.5
		c0.06,0.3,1.5,7.51,4.4,14.77c4.27,10.72,9.53,16.01,15.64,15.75c9.86-0.42,11.65-9.29,13.08-16.4c0.48-2.37,0.97-4.81,1.69-7
		c2.99-9.05,8.53-13.71,17.44-14.68c0.02,0,0.04,0,0.05-0.01c7.44-0.78,12.58,3.35,12.63,3.4c1.27,1.04,3.15,0.86,4.19-0.41
		c1.04-1.27,0.86-3.15-0.41-4.19C138.92,18.69,132.07,13.17,122.17,14.21L122.17,14.21z"/>
	<path class="st0" d="M221.84,24.05c1.88,0,3.68,0.36,5.4,1.07c1.72,0.71,3.23,1.71,4.51,2.97c1.29,1.27,2.33,2.78,3.11,4.53
		c0.78,1.76,1.17,3.66,1.17,5.7V50.7c0,0.82-0.29,1.51-0.85,2.08c-0.57,0.57-1.24,0.88-2.02,0.92c-0.78,0-1.46-0.27-2.02-0.8
		c-0.57-0.53-0.85-1.2-0.85-2.02V38.87c0-1.23-0.22-2.37-0.64-3.43c-0.43-1.06-1.03-1.99-1.79-2.79c-0.76-0.8-1.66-1.43-2.7-1.9
		c-1.04-0.47-2.16-0.71-3.37-0.71c-1.14,0-2.2,0.21-3.2,0.64c-1,0.43-1.88,1.03-2.64,1.81c-0.76,0.78-1.37,1.68-1.82,2.7
		c-0.45,1.02-0.67,2.12-0.67,3.31V50.7c0,0.82-0.29,1.52-0.88,2.11c-0.59,0.59-1.27,0.89-2.05,0.89c-0.79,0-1.47-0.27-2.05-0.8
		c-0.59-0.53-0.88-1.2-0.88-2.02V38.87c0.04-2.04,0.43-3.96,1.17-5.76c0.74-1.8,1.74-3.37,2.99-4.72c1.25-1.35,2.74-2.41,4.46-3.18
		C217.93,24.44,219.81,24.05,221.84,24.05z"/>
	<path class="st0" d="M242.32,14.74c0.86,0,1.56,0.32,2.13,0.94c0.56,0.63,0.88,1.41,0.96,2.34v5.47h16.28
		c0.81,0,1.49,0.32,2.04,0.94c0.55,0.63,0.81,1.35,0.81,2.16c0,0.81-0.29,1.54-0.87,2.19c-0.58,0.65-1.24,0.97-1.98,0.97h-16.28
		v8.88c0,1.18,0.21,2.3,0.64,3.38c0.43,1.07,1.02,2.02,1.78,2.83c0.76,0.81,1.65,1.46,2.68,1.95c1.03,0.49,2.12,0.73,3.29,0.73
		c1.32,0,2.43-0.19,3.35-0.58c0.91-0.39,1.72-0.92,2.42-1.61h-0.06c0.58-0.57,1.3-0.85,2.16-0.85c0.81,0,1.53,0.3,2.15,0.91
		c0.54,0.53,0.81,1.24,0.81,2.13c0,0.33-0.05,0.66-0.14,1c-0.1,0.35-0.28,0.64-0.55,0.88h0.06c-1.36,1.38-2.85,2.43-4.46,3.16
		c-1.61,0.73-3.37,1.09-5.28,1.09c-2.02,0-3.93-0.35-5.73-1.06c-1.81-0.71-3.38-1.72-4.72-3.04c-1.34-1.32-2.42-2.9-3.23-4.74
		c-0.82-1.84-1.25-3.9-1.28-6.17V18.03c0-0.81,0.28-1.56,0.85-2.25C240.7,15.09,241.43,14.74,242.32,14.74z"/>
	<path class="st0" d="M203.09,33.32c-0.79-1.79-1.83-3.36-3.12-4.71c-1.29-1.35-2.8-2.44-4.51-3.26c-1.72-0.83-3.5-1.24-5.35-1.24
		c-1.93,0-3.74,0.41-5.43,1.24c-1.7,0.82-3.2,1.91-4.51,3.26c-1.31,1.35-2.34,2.92-3.09,4.71c-0.75,1.79-1.13,3.65-1.13,5.58
		c0,2.01,0.38,3.93,1.13,5.74c0.75,1.81,1.77,3.4,3.07,4.77c1.29,1.37,2.79,2.44,4.51,3.23c1.71,0.79,3.52,1.14,5.41,1.06
		c0.2-0.01,0.4-0.03,0.59-0.05c1.59-0.06,3.07-0.38,4.44-1c1.5-0.68,2.89-1.67,4.16-2.96l0.15-0.18c0.19-0.29,0.23-0.32,0.32-0.64
		c0.09-0.32,0.14-0.63,0.14-0.94c0-0.83-0.25-1.5-0.76-1.99c-0.58-0.57-1.25-0.85-2.02-0.85c-0.8,0-1.47,0.27-2.02,0.8l-0.05,0.06
		c-0.29,0.29-0.59,0.54-0.9,0.76c-0.56,0.3-1.2,0.58-1.92,0.72c-0.6,0.12-1.27,0.3-2.08,0.3c-1.47,0-2.94-0.44-4.43-1.33
		c-1.48-0.89-2.78-2.37-3.9-4.47h19.43c0.88,0.04,1.62-0.25,2.2-0.88c0.58-0.62,0.87-1.34,0.87-2.14
		C204.28,36.97,203.88,35.11,203.09,33.32z M181.73,35.82c0-0.08,0.04-0.16,0.12-0.24c0.81-1.53,1.94-2.82,3.38-3.87
		c1.45-1.05,3.07-1.57,4.89-1.57c1.73,0,3.33,0.51,4.77,1.54c1.45,1.03,2.63,2.35,3.56,3.95v0.12c0,0.04,0.02,0.06,0.06,0.06H181.73
		z"/>
	<path class="st0" d="M125.7,24.01c1.85,0.21,3.58,0.74,5.2,1.6c1.62,0.86,3.02,1.96,4.19,3.29c1.17,1.33,2.09,2.85,2.77,4.55
		c0.68,1.7,1.02,3.5,1.02,5.38v11.87c0,0.82-0.31,1.53-0.92,2.12c-0.61,0.6-1.31,0.89-2.09,0.89c-0.29,0-0.61-0.02-0.95-0.06
		c-0.35-0.04-0.69-0.15-1.02-0.34c-0.33-0.18-0.63-0.44-0.89-0.77c-0.27-0.33-0.42-0.78-0.46-1.35c-0.21,0.08-0.57,0.27-1.11,0.55
		c-0.53,0.29-0.92,0.49-1.17,0.61c-0.45,0.21-0.92,0.39-1.41,0.55c-0.49,0.16-1.01,0.33-1.54,0.49c-1.03,0.21-2.13,0.31-3.32,0.31
		c-3.08,0-5.83-0.83-8.25-2.49c-2.42-1.66-4.22-3.8-5.41-6.43c-0.41-0.9-0.73-1.86-0.95-2.86c-0.23-1.01-0.34-2.04-0.34-3.11
		c0-1.07,0.11-2.09,0.34-3.08c0.22-0.98,0.54-1.95,0.95-2.89c1.19-2.67,3-4.82,5.41-6.46c2.42-1.64,5.17-2.46,8.25-2.46
		c0.33,0,0.61,0,0.86,0C125.08,23.95,125.37,23.97,125.7,24.01z M123.91,47.69c1.19,0,2.33-0.23,3.42-0.68
		c1.09-0.45,2.03-1.07,2.83-1.88c0.8-0.8,1.44-1.73,1.91-2.8c0.47-1.06,0.71-2.24,0.71-3.51c0-1.15-0.24-2.27-0.71-3.35
		c-0.47-1.09-1.12-2.03-1.94-2.83c-0.82-0.8-1.76-1.44-2.83-1.94c-1.07-0.49-2.2-0.74-3.39-0.74c-1.19,0-2.31,0.24-3.35,0.71
		c-1.05,0.47-1.98,1.12-2.8,1.94c-0.82,0.82-1.47,1.76-1.94,2.83c-0.47,1.07-0.71,2.19-0.71,3.38c0,1.23,0.25,2.38,0.74,3.45
		c0.49,1.07,1.16,2,2,2.8c0.84,0.8,1.78,1.44,2.83,1.91C121.73,47.46,122.81,47.69,123.91,47.69z"/>
	<path class="st0" d="M282.94,24.01c1.85,0.21,3.58,0.74,5.2,1.6c1.62,0.86,3.01,1.96,4.18,3.29c1.17,1.33,2.1,2.85,2.77,4.55
		c0.67,1.7,1.01,3.5,1.01,5.38v11.87c0,0.82-0.31,1.53-0.92,2.12c-0.61,0.6-1.31,0.89-2.09,0.89c-0.29,0-0.61-0.02-0.96-0.06
		c-0.35-0.04-0.68-0.15-1.01-0.34c-0.33-0.18-0.63-0.44-0.9-0.77c-0.27-0.33-0.42-0.78-0.46-1.35c-0.2,0.08-0.58,0.27-1.11,0.55
		c-0.53,0.29-0.92,0.49-1.17,0.61c-0.45,0.21-0.92,0.39-1.41,0.55c-0.49,0.16-1.01,0.33-1.54,0.49c-1.03,0.21-2.13,0.31-3.32,0.31
		c-3.08,0-5.82-0.83-8.24-2.49c-2.42-1.66-4.22-3.8-5.41-6.43c-0.41-0.9-0.73-1.86-0.95-2.86c-0.23-1.01-0.34-2.04-0.34-3.11
		c0-1.07,0.11-2.09,0.34-3.08c0.23-0.98,0.54-1.95,0.95-2.89c1.19-2.67,2.99-4.82,5.41-6.46c2.42-1.64,5.17-2.46,8.24-2.46
		c0.33,0,0.62,0,0.86,0C282.32,23.95,282.61,23.97,282.94,24.01z M281.15,47.69c1.19,0,2.32-0.23,3.41-0.68
		c1.09-0.45,2.03-1.07,2.83-1.88c0.8-0.8,1.44-1.73,1.91-2.8c0.47-1.06,0.71-2.24,0.71-3.51c0-1.15-0.24-2.27-0.71-3.35
		c-0.47-1.09-1.12-2.03-1.94-2.83c-0.82-0.8-1.76-1.44-2.83-1.94c-1.07-0.49-2.19-0.74-3.38-0.74c-1.19,0-2.31,0.24-3.35,0.71
		c-1.05,0.47-1.98,1.12-2.8,1.94c-0.82,0.82-1.47,1.76-1.94,2.83c-0.47,1.07-0.71,2.19-0.71,3.38c0,1.23,0.24,2.38,0.74,3.45
		c0.49,1.07,1.16,2,2,2.8c0.84,0.8,1.78,1.44,2.83,1.91C278.97,47.46,280.05,47.69,281.15,47.69z"/>
	<path class="st3" d="M82.74,10.51c0.46,1.05,1.1,1.91,1.92,2.55c-1,1.51-2.05,2.97-2.54,4.93c1.98-0.64,2.93-2.2,4.42-3.27
		c0.91,1.11,1.41,2.68,2.51,3.57c0.57-0.93-0.34-3.01-0.77-4.03c1-0.57,2.73-0.47,3.66-1.1c-0.47-0.98-2.23-0.51-3.58-0.5
		c-0.38-0.41,0.75-0.89,0.43-1.8c-1.2,0.05-1.7,0.73-2.41,1.21C85.18,11.66,83.86,10.38,82.74,10.51z"/>
	<path class="st4" d="M80.3,21.01c0.99,1.22,2.14,2.12,3.46,2.67c-0.77,2.36-1.63,4.67-1.58,7.44c2.38-1.56,3.07-3.96,4.65-5.92
		c1.61,1.14,2.84,3.03,4.61,3.81c0.42-1.44-1.54-3.86-2.47-5.05c1.11-1.11,3.45-1.61,4.44-2.78c-0.97-1.13-3.12,0.13-4.9,0.63
		c-0.66-0.4,0.67-1.45-0.09-2.53c-1.57,0.5-1.98,1.57-2.75,2.46C83.93,21.66,81.73,20.45,80.3,21.01z"/>
	<path class="st5" d="M105.62,1.48c0,0,1.97,3.29-0.87,5.41c0,0,5.09-0.42,6.77,1.73c0,0-0.79,2.58-6.73,1.53
		c0,0,1.16,5.32-0.04,7.3c0,0-3.17,0.08-3.44-7.63c0,0-5.6,6.33-10.1,6.91c0,0,1.73-5.27,6.8-9.19c0,0-4.14-1.97-3.66-5.47
		c0,0,4.36,0.83,7.1,3.41C101.45,5.48,103.07,1.69,105.62,1.48z"/>
</g>
</svg>
