<?xml version="1.0" encoding="utf-8"?>
<!-- Generator: Adobe Illustrator 23.0.1, SVG Export Plug-In . SVG Version: 6.00 Build 0)  -->
<svg version="1.1" id="Capa_1" xmlns="http://www.w3.org/2000/svg" xmlns:xlink="http://www.w3.org/1999/xlink" x="0px" y="0px"
	 viewBox="0 0 298 65" style="enable-background:new 0 0 298 65;" xml:space="preserve">
<style type="text/css">
	.st0{fill:#245836;}
	.st1{fill:#3DAE2B;}
	.st2{fill:#1A5632;}
</style>
<g>
	<g>
		<path class="st0" d="M178.3,30.29c-0.56-0.14-0.84-0.14-0.98-0.14c-2.03,0-3.5,1.4-3.5,3.85v18.89c0,3.85,2.38,6.3,6.37,6.3
			c3.57,0,5.11-1.33,5.11-3.01c0-0.42-0.07-0.91-0.35-1.33c-0.84,0.42-2.17,0.77-3.15,0.77c-2.24,0-3.5-0.98-3.5-3.78V39.52
			c0.84-0.21,2.1-0.35,3.22-0.35c1.33,0,2.73,0.14,4.06,0.56c0.21-0.42,0.28-0.98,0.28-1.4c0-1.75-1.12-2.66-3.92-2.66
			c-1.4,0-2.73,0.28-3.64,0.56V30.29z"/>
		<path class="st0" d="M164.52,35.88c-0.35,0-0.84,0.07-1.61,0.28v16.37c-1.19,1.82-3.36,3.08-5.74,3.08c-2.17,0-3.5-1.4-3.5-3.92
			V39.1c0-1.89-0.98-3.22-2.79-3.22c-0.42,0-1.05,0-1.68,0.28V52.6c0,4.97,3.36,6.72,6.65,6.72c2.73,0,5.53-1.33,7.07-3.22v0.14
			c0,1.54,0.63,2.66,2.66,2.66c0.56,0,1.26-0.14,1.82-0.42V39.1C167.39,37.21,166.48,35.88,164.52,35.88L164.52,35.88z"/>
		<path class="st0" d="M254.98,35.33c-4.9,0-8.11,1.68-8.11,3.85c0,0.7,0.21,1.33,0.84,1.68c1.75-0.98,3.85-1.61,6.02-1.61
			c3.92,0,5.81,1.61,5.81,6.01v0.49c-0.84-0.14-2.03-0.21-3.15-0.21c-6.51,0-10.56,2.66-10.56,7.34c0,3.92,2.87,6.44,7.14,6.44
			c2.87,0,5.32-1.4,6.51-3.22c-0.14,1.68,0.98,2.8,2.8,2.8c0.49,0,1.26-0.14,1.75-0.42V44.42C264,38.05,260.71,35.33,254.98,35.33
			L254.98,35.33z M259.52,52.81c-0.84,1.89-2.73,3.15-4.97,3.15c-2.59,0-3.99-1.26-3.99-3.29c0-2.38,1.82-3.99,6.08-3.99
			c0.91,0,1.89,0.07,2.87,0.21V52.81z"/>
		<path class="st0" d="M230.63,41.97c0-2.17,1.89-3.01,4.55-3.01c2.59,0,4.34,0.63,5.88,1.54c0.42-0.28,0.77-0.91,0.77-1.54
			c0-2.03-1.54-3.64-6.86-3.64c-5.53,0-9.03,2.73-9.03,7c0,5.11,4.06,6.09,7.56,6.86c2.52,0.56,4.76,1.12,4.76,3.43
			c0,2.17-2.1,3.01-4.9,3.01c-2.45,0-4.41-0.42-6.37-1.54c-0.49,0.42-0.7,1.12-0.7,1.68c0,2.1,1.89,3.57,6.72,3.57
			c6.5,0,9.79-2.8,9.79-7.07c0-5.11-4.06-6.09-7.42-6.93C232.87,44.7,230.63,44.21,230.63,41.97L230.63,41.97z"/>
		<path class="st0" d="M200.06,35.33c-2.1,0-4.97,1.75-5.88,4.34c0.42-2.87-1.05-3.78-2.45-3.78c-0.63,0-1.33,0.21-1.89,0.35v20.01
			c0,1.12,0.63,2.66,2.73,2.66c0.56,0,1.19-0.14,1.75-0.42V43.51c0.77-2.45,2.66-4.55,5.95-4.55c0.56,0,1.26,0,2.03,0.14
			c0.35-0.49,0.49-1.05,0.49-1.61C202.79,36.38,202.09,35.33,200.06,35.33L200.06,35.33z"/>
		<path class="st0" d="M127.02,58.9c0.28,0,0.84-0.07,1.61-0.28V42.25c1.12-1.68,3.43-3.08,5.67-3.08c2.66,0,4.2,1.47,4.2,4.41v12.1
			c0,1.89,0.98,3.22,2.8,3.22c0.42,0,1.05,0,1.68-0.28V42.67c0-4.97-3.43-7.21-7.34-7.21c-3.15,0-5.53,1.61-7,3.22v-0.14
			c0-1.54-0.63-2.66-2.66-2.66c-0.56,0-1.26,0.14-1.82,0.42v19.38C124.15,57.57,125.06,58.9,127.02,58.9L127.02,58.9z"/>
		<path class="st0" d="M222.51,42.32c0-4.06-3.01-7-8.53-7c-6.16,0-10.49,4.69-10.49,12.1c0,7.56,4.34,11.89,11.33,11.89
			c4.41,0,7.56-1.4,7.56-3.64c0-0.56-0.21-1.19-0.63-1.54c-1.61,1.05-3.64,1.54-5.66,1.54c-4.2,0-7.63-2.45-7.91-7.27
			c1.33,0.35,2.73,0.56,4.13,0.56C218.46,48.97,222.51,46.52,222.51,42.32L222.51,42.32z M213.98,39.03c2.8,0,3.99,1.33,3.99,3.15
			c0,2.1-2.1,3.36-6.09,3.36c-1.12,0-2.52-0.14-3.57-0.42C208.45,41.2,210.83,39.03,213.98,39.03z"/>
	</g>
	<path class="st1" d="M41.9,18.6c1.68-0.26,2.82-1.83,2.56-3.51c-0.26-1.68-1.84-2.82-3.51-2.56c-1.68,0.26-2.82,1.84-2.56,3.51
		C38.65,17.72,40.23,18.86,41.9,18.6z M58.63,6.91c1.68-0.27,2.81-1.85,2.53-3.53c-0.27-1.67-1.85-2.81-3.53-2.53
		c-1.67,0.28-2.81,1.86-2.53,3.53C55.38,6.05,56.96,7.18,58.63,6.91z M78.12,6.93c1.69,0.09,3.14-1.21,3.23-2.91
		c0.09-1.7-1.21-3.14-2.91-3.23c-1.7-0.09-3.14,1.21-3.23,2.91C75.12,5.4,76.42,6.84,78.12,6.93z M94.7,18.67
		c1.66,0.35,3.29-0.72,3.64-2.38c0.34-1.66-0.72-3.29-2.38-3.63c-1.66-0.34-3.29,0.72-3.64,2.38C91.98,16.69,93.04,18.32,94.7,18.67
		z M101.87,30.8c-1.69-0.19-3.21,1.02-3.4,2.7c-0.19,1.69,1.02,3.21,2.7,3.4c1.69,0.19,3.21-1.02,3.4-2.7
		C104.77,32.52,103.56,30.99,101.87,30.8z M36.5,37.71c1.67-0.32,2.76-1.93,2.44-3.6c-0.32-1.67-1.93-2.76-3.6-2.44
		c-1.67,0.32-2.76,1.93-2.44,3.6C33.22,36.94,34.83,38.04,36.5,37.71z M63.82,34.21c0.27-0.19,0.31-0.47,0.02-1.02
		c-5.91-9.16-16.54-11.6-21.57-11.59c-3.22,0-5.08,1.46-5.08,1.46C52.33,23.38,62.91,34,62.91,34
		C63.24,34.31,63.55,34.4,63.82,34.21z M50.25,21c0.34,0.28,0.67,0.41,0.88,0.24c0.13-0.11,0.17-0.34-0.07-0.71
		C47.95,15.85,48.92,10,48.92,10S44.5,16.22,50.25,21z M63.53,24.37c0.11,0.37,0.33,0.79,0.77,0.75c0.4-0.04,0.5-0.27,0.51-0.87
		C64.5,13.84,55.8,5.68,49.89,7.62C56.84,10.46,61.58,17.71,63.53,24.37z M62.83,12.29c0.34-0.05,0.34-0.42,0.33-0.68
		c-0.41-6.54,3.72-9.89,3.72-9.89l-0.85,0.26c-3.99,1.21-4.48,6.14-3.72,9.67C62.4,12.11,62.6,12.32,62.83,12.29z M71.22,30.53
		c0.48-0.12,0.37-0.88,0.37-0.88c-1.22-12.09,7.95-19.23,11.67-21.01c-6.89-0.36-13.03,5.57-13.85,13.52
		c-0.29,2.79,0.12,5.47,1.06,7.82C70.66,30.38,70.91,30.61,71.22,30.53z M71.99,10.89c0,0-0.11,0.59,0.3,0.79
		c0.29,0.14,0.58,0.06,0.84-0.44c1.25-2.6,1.54-7.25-2.61-11.23C70.51,0,72.83,4.95,71.99,10.89z M81.23,26.43
		c0,0-0.69,0.43-0.38,0.96c0.16,0.28,0.54,0.39,1.01,0.22c4.07-1.98,7.13-5.66,8.34-10.29c0.99-3.78,0.5-7.61-1.12-10.91
		c0.38,2.75,0.23,5.68-0.53,8.62C87.29,19.81,84.63,23.77,81.23,26.43z M90.15,22.28c-0.42,0.34-0.44,0.66-0.29,0.87
		c0.2,0.26,0.56,0.28,0.87,0.17c5.97-2.05,10.96-0.8,10.96-0.8C96.92,19.27,92.44,20.52,90.15,22.28z M83.34,34.88
		c-0.18,0.02-0.44,0.12-0.45,0.33c-0.01,0.21,0.21,0.39,0.75,0.47c8.44,0.93,16.72-4.63,15.11-10.51
		C96.96,29.06,91.03,34.04,83.34,34.88z M93.09,35.88c-0.47-0.01-0.7,0.15-0.75,0.39c-0.1,0.4,0.2,0.65,0.54,0.77
		c5.57,1.95,8.96,6.35,8.96,6.35C100.23,37.87,95.97,35.98,93.09,35.88z M37.27,27.42c0,0,0.77,2.35,2.64,4.2
		c2.76,2.74,7.91,5.16,12.84,4.5c0.41-0.05,0.65-0.25,0.64-0.57c-0.01-0.36-0.34-0.43-0.72-0.44
		C45.71,34.97,37.27,27.42,37.27,27.42z M45.41,37.73c-0.02-0.34-0.28-0.53-0.8-0.57c-2.88-0.19-7.32,1.18-9.54,6.49
		c0,0,4.08-4.1,9.62-5.28C45.14,38.28,45.43,38.11,45.41,37.73z M96.43,63.93c-0.99-0.57-10.28-5.33-22.93-6.12
		c-4.13-12.87,3.1-23.43,3.37-23.82c0.33-0.48,0.34-0.76,0.14-0.91c-0.24-0.17-0.54-0.02-0.84,0.27c0,0-11.38,10.05-5.01,24.35
		c-0.68-0.02-4.44-0.04-5.98,0.08c2.65-4.04,2.19-9.58-0.24-12.69c-0.23-0.3-0.43-0.33-0.63-0.23c-0.22,0.12-0.25,0.41-0.12,0.75
		c0,0,2.39,6.34-1.1,12.33c-11.98,1.04-20.86,5.68-21.3,5.99c-0.11,0.07-0.18,0.19-0.13,0.33c0.04,0.1,0.16,0.15,0.39,0.07
		c0.27-0.1,11.54-4.1,27.06-4.1c9.77,0,18.99,1.49,27.14,4.13c0.2,0.05,0.3,0.04,0.36-0.08C96.66,64.16,96.6,64.02,96.43,63.93z"/>
	<g>
		<path class="st2" d="M132.74,15.84h-2.78v-1.41h4.44v5.63c-0.09,0.12-0.26,0.27-0.51,0.45c-0.25,0.18-0.56,0.36-0.95,0.54
			c-0.39,0.18-0.85,0.33-1.37,0.46c-0.52,0.13-1.12,0.19-1.78,0.19c-1.02,0-1.9-0.17-2.65-0.52c-0.74-0.34-1.36-0.83-1.84-1.45
			c-0.48-0.62-0.84-1.36-1.07-2.22c-0.23-0.86-0.35-1.79-0.35-2.81c0-0.99,0.12-1.91,0.36-2.75c0.24-0.84,0.6-1.56,1.09-2.17
			c0.49-0.6,1.12-1.08,1.88-1.42c0.76-0.34,1.66-0.52,2.7-0.52c0.48,0,0.95,0.06,1.41,0.17c0.46,0.11,0.88,0.26,1.23,0.44
			c0.36,0.18,0.65,0.38,0.88,0.6c0.23,0.22,0.34,0.43,0.34,0.63c0,0.16-0.05,0.34-0.16,0.54c-0.11,0.2-0.23,0.38-0.36,0.54h-0.34
			c-0.12-0.15-0.28-0.3-0.48-0.46c-0.2-0.16-0.43-0.31-0.69-0.45c-0.26-0.14-0.55-0.25-0.88-0.34c-0.32-0.09-0.69-0.13-1.08-0.13
			c-0.81,0-1.48,0.15-2.01,0.46c-0.53,0.31-0.95,0.71-1.27,1.2c-0.32,0.5-0.54,1.06-0.67,1.7c-0.13,0.64-0.19,1.29-0.19,1.97
			c0,0.7,0.07,1.39,0.21,2.05c0.14,0.66,0.38,1.25,0.72,1.77c0.34,0.52,0.78,0.93,1.33,1.25c0.55,0.32,1.24,0.48,2.06,0.48
			c0.38,0,0.73-0.03,1.03-0.1c0.3-0.07,0.57-0.15,0.81-0.24c0.23-0.09,0.43-0.19,0.59-0.29c0.16-0.1,0.28-0.19,0.36-0.27V15.84z"/>
		<path class="st2" d="M137.08,12c0.21-0.01,0.33-0.02,0.36-0.02c0.3,0,0.58,0.08,0.83,0.23c0.25,0.15,0.39,0.41,0.45,0.77
			c0.19-0.28,0.46-0.54,0.84-0.79c0.37-0.25,0.8-0.37,1.29-0.37c0.15,0,0.3,0.01,0.47,0.04c0.17,0.03,0.32,0.07,0.47,0.13
			c0.15,0.06,0.27,0.14,0.36,0.25c0.09,0.11,0.14,0.25,0.14,0.42c0,0.21-0.05,0.44-0.16,0.69c-0.11,0.25-0.21,0.45-0.32,0.61
			c-0.17-0.16-0.36-0.28-0.56-0.37c-0.2-0.09-0.45-0.13-0.76-0.13c-0.23,0-0.44,0.04-0.65,0.11c-0.21,0.07-0.39,0.17-0.55,0.3
			c-0.16,0.13-0.29,0.27-0.38,0.43c-0.09,0.16-0.14,0.33-0.14,0.5v6.6h-1.69V12z"/>
		<path class="st2" d="M143.92,11.94c0.17-0.01,0.29-0.02,0.36-0.02c0.4,0,0.72,0.1,0.96,0.3c0.25,0.2,0.37,0.55,0.37,1.05v4.63
			c0,0.52,0.04,0.93,0.11,1.23c0.07,0.31,0.22,0.54,0.45,0.7c0.2,0.15,0.41,0.25,0.65,0.3c0.23,0.05,0.5,0.08,0.81,0.08
			c0.36,0,0.69-0.05,0.98-0.15c0.3-0.1,0.55-0.22,0.77-0.37c0.21-0.15,0.38-0.3,0.5-0.47c0.12-0.17,0.18-0.31,0.18-0.45v-6.84
			c0.17-0.01,0.29-0.02,0.36-0.02c0.4,0,0.72,0.1,0.96,0.3c0.25,0.2,0.37,0.55,0.37,1.05v8.12h-1.69v-0.88
			c-0.27,0.31-0.64,0.58-1.11,0.82c-0.48,0.24-1.09,0.36-1.85,0.36c-0.77,0-1.37-0.12-1.79-0.36c-0.42-0.24-0.74-0.54-0.94-0.92
			c-0.21-0.37-0.33-0.78-0.37-1.22c-0.04-0.44-0.06-0.87-0.06-1.28V11.94z"/>
		<path class="st2" d="M154.68,12c0.2-0.01,0.32-0.02,0.38-0.02c0.32,0,0.59,0.07,0.83,0.22c0.23,0.15,0.39,0.39,0.47,0.74
			c0.25-0.3,0.6-0.57,1.05-0.79c0.45-0.22,1.01-0.33,1.69-0.33c0.52,0,1,0.09,1.46,0.26c0.46,0.17,0.86,0.45,1.21,0.83
			c0.35,0.38,0.63,0.87,0.84,1.47c0.21,0.6,0.31,1.34,0.31,2.22c0,0.99-0.12,1.82-0.37,2.48c-0.25,0.66-0.56,1.18-0.95,1.56
			c-0.39,0.38-0.83,0.66-1.3,0.82c-0.48,0.16-0.94,0.24-1.39,0.24c-0.72,0-1.28-0.12-1.69-0.37c-0.41-0.25-0.69-0.47-0.84-0.67v5.03
			h-1.69V12z M156.37,19.14c0.08,0.11,0.19,0.22,0.32,0.35c0.13,0.13,0.29,0.24,0.49,0.35c0.19,0.11,0.41,0.2,0.66,0.28
			c0.25,0.08,0.51,0.12,0.79,0.12c0.82,0,1.44-0.3,1.86-0.92c0.42-0.61,0.63-1.49,0.63-2.63c0-0.48-0.04-0.93-0.13-1.35
			c-0.09-0.42-0.23-0.79-0.42-1.09c-0.19-0.3-0.45-0.55-0.78-0.73c-0.33-0.18-0.73-0.27-1.2-0.27c-0.64,0-1.16,0.13-1.58,0.4
			c-0.42,0.27-0.63,0.58-0.63,0.95V19.14z"/>
		<path class="st2" d="M165.88,20.21c-0.35-0.45-0.6-0.98-0.76-1.58c-0.16-0.6-0.24-1.24-0.24-1.9c0-0.66,0.09-1.29,0.28-1.89
			c0.19-0.6,0.46-1.12,0.84-1.56c0.37-0.44,0.83-0.8,1.38-1.06c0.55-0.27,1.2-0.4,1.94-0.4c0.78,0,1.45,0.13,1.99,0.4
			c0.54,0.27,0.99,0.62,1.33,1.06c0.34,0.44,0.6,0.96,0.76,1.54c0.16,0.58,0.24,1.2,0.24,1.85c0,0.65-0.08,1.28-0.24,1.88
			c-0.16,0.6-0.41,1.14-0.77,1.6c-0.35,0.46-0.81,0.84-1.36,1.11s-1.23,0.42-2.03,0.42c-0.8,0-1.47-0.13-2.02-0.4
			C166.67,21.02,166.22,20.67,165.88,20.21z M167.97,19.94c0.33,0.21,0.76,0.32,1.27,0.32c0.53,0,0.97-0.11,1.31-0.33
			c0.34-0.22,0.61-0.5,0.8-0.84c0.19-0.34,0.31-0.72,0.39-1.14c0.07-0.42,0.11-0.84,0.11-1.25c0-0.41-0.04-0.82-0.11-1.22
			c-0.07-0.4-0.2-0.77-0.39-1.09c-0.19-0.32-0.44-0.59-0.78-0.79c-0.33-0.2-0.76-0.3-1.29-0.3c-0.5,0-0.92,0.1-1.26,0.3
			c-0.34,0.2-0.61,0.46-0.81,0.79c-0.2,0.33-0.34,0.69-0.43,1.09c-0.09,0.4-0.13,0.81-0.13,1.22c0,0.41,0.04,0.83,0.11,1.25
			c0.07,0.42,0.21,0.81,0.41,1.14C167.37,19.43,167.63,19.71,167.97,19.94z"/>
	</g>
</g>
</svg>
